<svg xmlns="http://www.w3.org/2000/svg" viewBox="0 0 64 64">
  <path d="M32 4c-1.5 0-3 1.2-3 3 0 1.2.7 2.2 1.7 2.7L28 18c-5 2-9 6-9 12 0 2 .5 3.8 1.3 5.4L17 38c-1 .5-1.5 1.5-1.5 2.5 0 1 .5 2 1.5 2.5h2v4c0 1.5.8 2.8 2 3.5V54c0 1.7 1.3 3 3 3h16c1.7 0 3-1.3 3-3v-3.5c1.2-.7 2-2 2-3.5v-4h2c1-.5 1.5-1.5 1.5-2.5 0-1-.5-2-1.5-2.5l-3.3-2.6c.8-1.6 1.3-3.4 1.3-5.4 0-6-4-10-9-12l-2.7-8.3c1-.5 1.7-1.5 1.7-2.7 0-1.8-1.5-3-3-3z" fill="#1a1a1a"/>
  <circle cx="32" cy="7" r="2" fill="#fff"/>
  <path d="M28.5 20c4-1.5 7-1.5 7 0s-1.5 4-3.5 4-5-2.5-3.5-4z" fill="#fff" opacity=".3"/>
</svg>
